<svg width="801" height="500" viewBox="0 0 801 500" fill="none" xmlns="http://www.w3.org/2000/svg">
<g clip-path="url(#clip0_267_2)">
<path d="M209.341 304.721C293.502 304.721 361.728 236.507 361.728 152.361C361.728 68.2141 293.502 0 209.341 0C125.181 0 56.9551 68.2141 56.9551 152.361C56.9551 236.507 125.181 304.721 209.341 304.721Z" fill="#F2F2F2"/>
<path d="M0 36.5825C0 92.0173 34.7828 136.875 77.7676 136.875L0 36.5825Z" fill="#2F2E41"/>
<path d="M77.7676 136.874C77.7676 80.8167 116.583 35.4556 164.552 35.4556L77.7676 136.874Z" fill="#D5956E"/>
<path d="M28.1768 41.6079C28.1768 94.2651 50.3571 136.875 77.7677 136.875L28.1768 41.6079Z" fill="#D5956E"/>
<path d="M77.7676 136.874C77.7676 65.2452 122.632 7.28369 178.076 7.28369L77.7676 136.874Z" fill="#2F2E41"/>
<path d="M61.4072 137.581C61.4072 137.581 72.4359 137.242 75.7597 134.875C79.0835 132.509 92.7247 129.683 93.5492 133.479C94.3738 137.274 110.123 152.354 97.672 152.455C85.2206 152.555 68.7405 150.515 65.4231 148.495C62.1058 146.475 61.4072 137.581 61.4072 137.581Z" fill="#A8A8A8"/>
<path opacity="0.2" d="M97.8942 151.134C85.4428 151.234 68.9627 149.195 65.6453 147.174C63.119 145.636 62.1123 140.115 61.7754 137.567C61.5421 137.577 61.4072 137.582 61.4072 137.582C61.4072 137.582 62.1058 146.475 65.4231 148.495C68.7405 150.516 85.2206 152.555 97.672 152.455C101.266 152.426 102.508 151.147 102.44 149.254C101.94 150.398 100.569 151.112 97.8942 151.134Z" fill="black"/>
<path d="M142.091 321.846C215.978 321.846 275.876 313.699 275.876 303.649C275.876 293.598 215.978 285.451 142.091 285.451C68.2033 285.451 8.30566 293.598 8.30566 303.649C8.30566 313.699 68.2033 321.846 142.091 321.846Z" fill="#3F3D56"/>
<path opacity="0.1" d="M142.091 318.926C204.125 318.926 254.413 312.086 254.413 303.648C254.413 295.21 204.125 288.37 142.091 288.37C80.0569 288.37 29.7686 295.21 29.7686 303.648C29.7686 312.086 80.0569 318.926 142.091 318.926Z" fill="black"/>
<path d="M598.534 500C710.353 500 801 487.67 801 472.46C801 457.251 710.353 444.921 598.534 444.921C486.715 444.921 396.067 457.251 396.067 472.46C396.067 487.67 486.715 500 598.534 500Z" fill="#3F3D56"/>
<path d="M222.218 478.274C289.389 478.274 343.841 470.867 343.841 461.731C343.841 452.594 289.389 445.188 222.218 445.188C155.048 445.188 100.596 452.594 100.596 461.731C100.596 470.867 155.048 478.274 222.218 478.274Z" fill="#3F3D56"/>
<path d="M330.964 447.783C395.352 464.235 519.121 426.324 532.715 383.405" stroke="#2F2E41" stroke-width="2" stroke-miterlimit="10"/>
<path d="M221.503 185.265C221.503 185.265 314.509 159.514 320.232 242.489C325.955 325.465 243.681 349.07 308.07 365.522" stroke="#2F2E41" stroke-width="2" stroke-miterlimit="10"/>
<path d="M131.647 384.323C131.647 384.323 159.601 376.583 161.321 401.522C163.041 426.461 138.313 433.555 157.666 438.5" stroke="#2F2E41" stroke-width="2" stroke-miterlimit="10"/>
<path d="M557.108 402.89L551.472 438.866C551.472 438.866 523.726 453.604 543.235 454.037C562.744 454.471 654.651 454.037 654.651 454.037C654.651 454.037 672.425 454.037 644.246 438.433L638.61 400.723L557.108 402.89Z" fill="#2F2E41"/>
<path opacity="0.1" d="M539.31 453.647C543.741 449.705 551.472 445.598 551.472 445.598L557.108 409.622L638.61 409.698L644.246 445.165C650.817 448.804 654.888 451.593 657.27 453.733C660.889 452.907 664.844 449.839 644.246 438.433L638.61 400.723L557.108 402.89L551.472 438.866C551.472 438.866 528.157 451.252 539.31 453.647Z" fill="black"/>
<path d="M768.113 152.138H426.738C419.607 152.138 413.827 157.917 413.827 165.046V394.966C413.827 402.095 419.607 407.874 426.738 407.874H768.113C775.243 407.874 781.023 402.095 781.023 394.966V165.046C781.023 157.917 775.243 152.138 768.113 152.138Z" fill="#2F2E41"/>
<path d="M768.667 165.792H426.183V357.377H768.667V165.792Z" fill="#3F3D56"/>
<path d="M597.425 161.89C598.623 161.89 599.593 160.92 599.593 159.723C599.593 158.526 598.623 157.556 597.425 157.556C596.228 157.556 595.258 158.526 595.258 159.723C595.258 160.92 596.228 161.89 597.425 161.89Z" fill="#F2F2F2"/>
<path d="M781.023 372.548V394.966C781.023 396.661 780.689 398.34 780.041 399.906C779.392 401.472 778.441 402.895 777.242 404.094C776.043 405.293 774.62 406.243 773.053 406.892C771.487 407.541 769.808 407.874 768.113 407.874H426.738C425.042 407.874 423.363 407.541 421.797 406.892C420.23 406.243 418.807 405.293 417.608 404.094C416.409 402.895 415.458 401.472 414.809 399.906C414.161 398.34 413.827 396.661 413.827 394.966V372.548H781.023Z" fill="#2F2E41"/>
<path d="M693.234 477.443V481.778H459.997V478.31L460.318 477.443L466.067 461.839H688.465L693.234 477.443Z" fill="#2F2E41"/>
<path d="M782.991 473.2C782.566 475.016 780.962 476.932 777.338 478.744C764.332 485.246 737.887 477.01 737.887 477.01C737.887 477.01 717.512 473.543 717.512 464.44C718.084 464.049 718.68 463.694 719.298 463.378C724.766 460.486 742.896 453.349 775.042 463.68C777.411 464.424 779.526 465.81 781.153 467.684C782.456 469.209 783.477 471.143 782.991 473.2Z" fill="#2F2E41"/>
<path opacity="0.1" d="M782.991 473.2C767.072 479.299 752.883 479.754 738.321 469.642C730.977 464.544 724.305 463.283 719.298 463.378C724.766 460.486 742.896 453.349 775.042 463.68C777.411 464.424 779.526 465.81 781.153 467.684C782.456 469.209 783.477 471.143 782.991 473.2Z" fill="black"/>
<path d="M763.031 469.641C766.144 469.641 768.667 468.865 768.667 467.908C768.667 466.95 766.144 466.174 763.031 466.174C759.919 466.174 757.396 466.95 757.396 467.908C757.396 468.865 759.919 469.641 763.031 469.641Z" fill="#F2F2F2"/>
<path d="M597.425 398.555C601.975 398.555 605.662 394.868 605.662 390.32C605.662 385.771 601.975 382.084 597.425 382.084C592.876 382.084 589.188 385.771 589.188 390.32C589.188 394.868 592.876 398.555 597.425 398.555Z" fill="#F2F2F2"/>
<path opacity="0.1" d="M693.234 477.443V481.778H459.997V478.31L460.318 477.443H693.234Z" fill="black"/>
<path d="M226.511 113.734H77.7021V286.838H226.511V113.734Z" fill="#2F2E41"/>
<path d="M241.535 96.5664H62.6777V158.083H241.535V96.5664Z" fill="#3F3D56"/>
<path d="M241.535 169.528H62.6777V231.044H241.535V169.528Z" fill="#3F3D56"/>
<path d="M241.535 242.489H62.6777V304.006H241.535V242.489Z" fill="#3F3D56"/>
<path opacity="0.4" d="M205.763 107.296H194.316V118.741H205.763V107.296Z" fill="#D5956E"/>
<path opacity="0.8" d="M222.218 107.296H210.771V118.741H222.218V107.296Z" fill="#D5956E"/>
<path d="M238.673 107.296H227.227V118.741H238.673V107.296Z" fill="#D5956E"/>
<path opacity="0.4" d="M205.763 179.542H194.316V190.987H205.763V179.542Z" fill="#D5956E"/>
<path opacity="0.8" d="M222.218 179.542H210.771V190.987H222.218V179.542Z" fill="#D5956E"/>
<path d="M238.673 179.542H227.227V190.987H238.673V179.542Z" fill="#D5956E"/>
<path opacity="0.4" d="M205.763 251.788H194.316V263.233H205.763V251.788Z" fill="#D5956E"/>
<path opacity="0.8" d="M222.218 251.788H210.771V263.233H222.218V251.788Z" fill="#D5956E"/>
<path d="M238.673 251.788H227.227V263.233H238.673V251.788Z" fill="#D5956E"/>
<path d="M226.511 441.345C257.725 441.345 283.03 416.045 283.03 384.835C283.03 353.626 257.725 328.326 226.511 328.326C195.297 328.326 169.992 353.626 169.992 384.835C169.992 416.045 195.297 441.345 226.511 441.345Z" fill="#2F2E41"/>
<path d="M217.926 429.185H200.756V459.943H217.926V429.185Z" fill="#2F2E41"/>
<path d="M252.267 429.185H235.097V459.943H252.267V429.185Z" fill="#2F2E41"/>
<path d="M215.064 465.665C222.967 465.665 229.373 463.263 229.373 460.3C229.373 457.337 222.967 454.936 215.064 454.936C207.162 454.936 200.756 457.337 200.756 460.3C200.756 463.263 207.162 465.665 215.064 465.665Z" fill="#2F2E41"/>
<path d="M249.405 464.95C257.308 464.95 263.714 462.548 263.714 459.586C263.714 456.623 257.308 454.221 249.405 454.221C241.503 454.221 235.097 456.623 235.097 459.586C235.097 462.548 241.503 464.95 249.405 464.95Z" fill="#2F2E41"/>
<path d="M227.942 389.842C238.61 389.842 247.258 381.196 247.258 370.529C247.258 359.863 238.61 351.216 227.942 351.216C217.273 351.216 208.625 359.863 208.625 370.529C208.625 381.196 217.273 389.842 227.942 389.842Z" fill="white"/>
<path d="M227.942 376.967C231.498 376.967 234.381 374.085 234.381 370.53C234.381 366.974 231.498 364.092 227.942 364.092C224.386 364.092 221.503 366.974 221.503 370.53C221.503 374.085 224.386 376.967 227.942 376.967Z" fill="#3F3D56"/>
<path d="M171.686 332.283C167.123 311.849 181.711 291.2 204.27 286.164C226.829 281.128 248.816 293.61 253.379 314.045C257.943 334.48 242.992 342.016 220.433 347.053C197.874 352.089 176.25 352.718 171.686 332.283Z" fill="#D5956E"/>
<path d="M279.52 373.564C293.868 367.424 303.937 358.796 302.009 354.292C300.081 349.789 286.887 351.115 272.538 357.255C258.19 363.396 248.121 372.024 250.049 376.528C251.977 381.031 265.172 379.705 279.52 373.564Z" fill="#2F2E41"/>
<path d="M173.637 411.477C187.985 405.336 198.054 396.708 196.126 392.204C194.198 387.701 181.004 389.027 166.656 395.168C152.307 401.308 142.239 409.936 144.167 414.44C146.094 418.943 159.289 417.617 173.637 411.477Z" fill="#2F2E41"/>
<path d="M259.421 401.288C259.421 406.818 245.178 417.74 229.373 417.74C213.568 417.74 198.609 407.534 198.609 402.003C198.609 396.472 213.568 397.711 229.373 397.711C245.178 397.711 259.421 395.757 259.421 401.288Z" fill="white"/>
</g>
<path d="M398.625 57.4844C397.594 57.4844 396.719 57.125 396 56.4062C395.281 55.6562 394.922 54.7656 394.922 53.7344V25.7969C394.922 24.7969 395.281 23.9219 396 23.1719C396.75 22.4219 397.625 22.0469 398.625 22.0469H413.203C413.922 22.0469 414.516 22.2031 414.984 22.5156C415.453 22.7969 415.688 23.3281 415.688 24.1094C415.688 24.8906 415.453 25.4375 414.984 25.75C414.516 26.0312 413.922 26.1719 413.203 26.1719H401.203C399.953 26.1719 399.328 26.7969 399.328 28.0469V37.2812H410.484C411.203 37.2812 411.797 37.4375 412.266 37.75C412.766 38.0312 413.016 38.5625 413.016 39.3438C413.016 40.125 412.766 40.6719 412.266 40.9844C411.797 41.2656 411.203 41.4062 410.484 41.4062H399.328V51.4844C399.328 52.7344 399.953 53.3594 401.203 53.3594H413.203C413.922 53.3594 414.516 53.5156 414.984 53.8281C415.453 54.1094 415.688 54.6406 415.688 55.4219C415.688 56.2031 415.453 56.75 414.984 57.0625C414.516 57.3438 413.922 57.4844 413.203 57.4844H398.625ZM421.125 58.1406C420.281 58.1406 419.703 57.875 419.391 57.3438C419.078 56.8125 418.922 56.1719 418.922 55.4219V25.9375C418.922 24.875 419.297 23.9688 420.047 23.2188C420.828 22.4375 421.75 22.0469 422.812 22.0469H428.672C430.797 22.0469 432.641 22.3594 434.203 22.9844C435.797 23.5781 437.031 24.5625 437.906 25.9375C438.781 27.2812 439.219 29.0938 439.219 31.375C439.219 33.9375 438.5 35.9062 437.062 37.2812C435.656 38.6562 433.766 39.6094 431.391 40.1406C432.203 40.3594 432.984 40.6562 433.734 41.0312C434.516 41.375 435.156 41.875 435.656 42.5312C436.188 43.1875 436.641 44.1094 437.016 45.2969C437.391 46.4844 437.703 47.7031 437.953 48.9531C438.234 50.1719 438.453 51.1875 438.609 52C438.766 52.5938 438.938 53.25 439.125 53.9688C439.312 54.6875 439.406 55.3594 439.406 55.9844C439.406 56.7344 439.188 57.2812 438.75 57.625C438.344 57.9688 437.781 58.1406 437.062 58.1406C436.281 58.1406 435.688 57.8438 435.281 57.25C434.875 56.6562 434.578 55.875 434.391 54.9062C434.203 53.9375 434.031 52.875 433.875 51.7188C433.75 50.5312 433.562 49.3594 433.312 48.2031C433.094 47.0156 432.734 45.9375 432.234 44.9688C431.766 44 431.078 43.2188 430.172 42.625C429.266 42.0312 428.078 41.7344 426.609 41.7344H423.328V55.4219C423.328 56.1719 423.172 56.8125 422.859 57.3438C422.547 57.875 421.969 58.1406 421.125 58.1406ZM423.328 37.75H426.984C428.422 37.75 429.719 37.5625 430.875 37.1875C432.031 36.7812 432.953 36.1094 433.641 35.1719C434.328 34.2344 434.672 32.9844 434.672 31.4219C434.672 29.4531 434.062 28.0625 432.844 27.25C431.656 26.4375 430.156 26.0312 428.344 26.0312H425.297C424.703 26.0312 424.219 26.2031 423.844 26.5469C423.5 26.8906 423.328 27.375 423.328 28V37.75ZM445.125 58.1406C444.281 58.1406 443.703 57.875 443.391 57.3438C443.078 56.8125 442.922 56.1719 442.922 55.4219V25.9375C442.922 24.875 443.297 23.9688 444.047 23.2188C444.828 22.4375 445.75 22.0469 446.812 22.0469H452.672C454.797 22.0469 456.641 22.3594 458.203 22.9844C459.797 23.5781 461.031 24.5625 461.906 25.9375C462.781 27.2812 463.219 29.0938 463.219 31.375C463.219 33.9375 462.5 35.9062 461.062 37.2812C459.656 38.6562 457.766 39.6094 455.391 40.1406C456.203 40.3594 456.984 40.6562 457.734 41.0312C458.516 41.375 459.156 41.875 459.656 42.5312C460.188 43.1875 460.641 44.1094 461.016 45.2969C461.391 46.4844 461.703 47.7031 461.953 48.9531C462.234 50.1719 462.453 51.1875 462.609 52C462.766 52.5938 462.938 53.25 463.125 53.9688C463.312 54.6875 463.406 55.3594 463.406 55.9844C463.406 56.7344 463.188 57.2812 462.75 57.625C462.344 57.9688 461.781 58.1406 461.062 58.1406C460.281 58.1406 459.688 57.8438 459.281 57.25C458.875 56.6562 458.578 55.875 458.391 54.9062C458.203 53.9375 458.031 52.875 457.875 51.7188C457.75 50.5312 457.562 49.3594 457.312 48.2031C457.094 47.0156 456.734 45.9375 456.234 44.9688C455.766 44 455.078 43.2188 454.172 42.625C453.266 42.0312 452.078 41.7344 450.609 41.7344H447.328V55.4219C447.328 56.1719 447.172 56.8125 446.859 57.3438C446.547 57.875 445.969 58.1406 445.125 58.1406ZM447.328 37.75H450.984C452.422 37.75 453.719 37.5625 454.875 37.1875C456.031 36.7812 456.953 36.1094 457.641 35.1719C458.328 34.2344 458.672 32.9844 458.672 31.4219C458.672 29.4531 458.062 28.0625 456.844 27.25C455.656 26.4375 454.156 26.0312 452.344 26.0312H449.297C448.703 26.0312 448.219 26.2031 447.844 26.5469C447.5 26.8906 447.328 27.375 447.328 28V37.75ZM477.047 58.1406C475.172 58.1406 473.594 57.75 472.312 56.9688C471.062 56.1562 470.047 55.0938 469.266 53.7812C468.516 52.4375 467.938 50.9688 467.531 49.375C467.156 47.75 466.906 46.1094 466.781 44.4531C466.656 42.7969 466.594 41.2656 466.594 39.8594C466.594 38.4219 466.656 36.875 466.781 35.2188C466.938 33.5312 467.203 31.875 467.578 30.25C467.984 28.625 468.578 27.1562 469.359 25.8438C470.141 24.5 471.172 23.4219 472.453 22.6094C473.734 21.7969 475.328 21.3906 477.234 21.3906C479.078 21.3906 480.609 21.7969 481.828 22.6094C483.078 23.4219 484.078 24.5 484.828 25.8438C485.578 27.1875 486.141 28.6719 486.516 30.2969C486.891 31.9219 487.141 33.5625 487.266 35.2188C487.391 36.8438 487.453 38.3438 487.453 39.7188C487.453 41.125 487.391 42.6562 487.266 44.3125C487.141 45.9688 486.875 47.6094 486.469 49.2344C486.094 50.8594 485.516 52.3438 484.734 53.6875C483.984 55.0312 482.984 56.1094 481.734 56.9219C480.484 57.7344 478.922 58.1406 477.047 58.1406ZM477 53.9688C478.75 53.9688 480.062 53.2188 480.938 51.7188C481.531 50.7188 481.953 49.4844 482.203 48.0156C482.484 46.5156 482.672 45 482.766 43.4688C482.859 41.9375 482.906 40.625 482.906 39.5312C482.906 38.75 482.875 37.7812 482.812 36.625C482.781 35.4688 482.672 34.25 482.484 32.9688C482.297 31.6875 481.984 30.4844 481.547 29.3594C481.141 28.2344 480.562 27.3281 479.812 26.6406C479.062 25.9219 478.109 25.5625 476.953 25.5625C475.828 25.5625 474.906 25.9062 474.188 26.5938C473.469 27.25 472.891 28.1094 472.453 29.1719C472.047 30.2344 471.75 31.3906 471.562 32.6406C471.375 33.8594 471.25 35.0312 471.188 36.1562C471.156 37.2812 471.141 38.2188 471.141 38.9688C471.141 40.0938 471.172 41.4531 471.234 43.0469C471.328 44.6094 471.5 46.1562 471.75 47.6875C472.031 49.2188 472.438 50.5 472.969 51.5312C473.812 53.1562 475.156 53.9688 477 53.9688ZM493.125 58.1406C492.281 58.1406 491.703 57.875 491.391 57.3438C491.078 56.8125 490.922 56.1719 490.922 55.4219V25.9375C490.922 24.875 491.297 23.9688 492.047 23.2188C492.828 22.4375 493.75 22.0469 494.812 22.0469H500.672C502.797 22.0469 504.641 22.3594 506.203 22.9844C507.797 23.5781 509.031 24.5625 509.906 25.9375C510.781 27.2812 511.219 29.0938 511.219 31.375C511.219 33.9375 510.5 35.9062 509.062 37.2812C507.656 38.6562 505.766 39.6094 503.391 40.1406C504.203 40.3594 504.984 40.6562 505.734 41.0312C506.516 41.375 507.156 41.875 507.656 42.5312C508.188 43.1875 508.641 44.1094 509.016 45.2969C509.391 46.4844 509.703 47.7031 509.953 48.9531C510.234 50.1719 510.453 51.1875 510.609 52C510.766 52.5938 510.938 53.25 511.125 53.9688C511.312 54.6875 511.406 55.3594 511.406 55.9844C511.406 56.7344 511.188 57.2812 510.75 57.625C510.344 57.9688 509.781 58.1406 509.062 58.1406C508.281 58.1406 507.688 57.8438 507.281 57.25C506.875 56.6562 506.578 55.875 506.391 54.9062C506.203 53.9375 506.031 52.875 505.875 51.7188C505.75 50.5312 505.562 49.3594 505.312 48.2031C505.094 47.0156 504.734 45.9375 504.234 44.9688C503.766 44 503.078 43.2188 502.172 42.625C501.266 42.0312 500.078 41.7344 498.609 41.7344H495.328V55.4219C495.328 56.1719 495.172 56.8125 494.859 57.3438C494.547 57.875 493.969 58.1406 493.125 58.1406ZM495.328 37.75H498.984C500.422 37.75 501.719 37.5625 502.875 37.1875C504.031 36.7812 504.953 36.1094 505.641 35.1719C506.328 34.2344 506.672 32.9844 506.672 31.4219C506.672 29.4531 506.062 28.0625 504.844 27.25C503.656 26.4375 502.156 26.0312 500.344 26.0312H497.297C496.703 26.0312 496.219 26.2031 495.844 26.5469C495.5 26.8906 495.328 27.375 495.328 28V37.75ZM553.453 58.1406C552.672 58.1406 552.125 57.9062 551.812 57.4375C551.531 56.9375 551.391 56.3438 551.391 55.6562V49.3281H541.125C539.219 49.3281 538.266 48.4062 538.266 46.5625C538.266 45.875 538.438 45.2188 538.781 44.5938L550.125 23.3125C550.406 22.7812 550.766 22.3281 551.203 21.9531C551.672 21.5469 552.219 21.3438 552.844 21.3438C553.844 21.3438 554.531 21.6562 554.906 22.2812C555.312 22.875 555.516 23.625 555.516 24.5312V45.5781C556.047 45.5781 556.641 45.5781 557.297 45.5781C557.984 45.5469 558.562 45.6562 559.031 45.9062C559.531 46.1562 559.781 46.6719 559.781 47.4531C559.781 48.2344 559.531 48.75 559.031 49C558.562 49.25 557.984 49.375 557.297 49.375C556.641 49.3438 556.047 49.3281 555.516 49.3281V55.6562C555.516 56.3438 555.359 56.9375 555.047 57.4375C554.766 57.9062 554.234 58.1406 553.453 58.1406ZM542.438 45.5781H551.391V28.6094L542.438 45.5781ZM573 58.1406C571.125 58.1406 569.562 57.75 568.312 56.9688C567.094 56.1562 566.125 55.0938 565.406 53.7812C564.719 52.4688 564.203 51.0156 563.859 49.4219C563.516 47.8281 563.297 46.2188 563.203 44.5938C563.109 42.9375 563.062 41.4062 563.062 40C563.062 38.5938 563.109 37.0625 563.203 35.4062C563.328 33.7188 563.547 32.0625 563.859 30.4375C564.203 28.7812 564.688 27.3125 565.312 26.0312C566.125 24.375 567.188 23.1875 568.5 22.4688C569.812 21.75 571.375 21.3906 573.188 21.3906C575.031 21.3906 576.562 21.7969 577.781 22.6094C579.031 23.3906 580.047 24.6094 580.828 26.2656C581.422 27.5156 581.859 28.9375 582.141 30.5312C582.453 32.125 582.656 33.7344 582.75 35.3594C582.875 36.9844 582.938 38.4844 582.938 39.8594C582.938 41.2656 582.891 42.7969 582.797 44.4531C582.703 46.0781 582.484 47.7031 582.141 49.3281C581.828 50.9219 581.312 52.3906 580.594 53.7344C579.906 55.0469 578.938 56.1094 577.688 56.9219C576.469 57.7344 574.906 58.1406 573 58.1406ZM573 54.3438C574.094 54.3438 574.969 53.9531 575.625 53.1719C576.312 52.3906 576.844 51.3906 577.219 50.1719C577.594 48.9531 577.859 47.6719 578.016 46.3281C578.203 44.9531 578.312 43.6719 578.344 42.4844C578.375 41.2969 578.391 40.3594 578.391 39.6719C578.391 38.9844 578.375 38.0469 578.344 36.8594C578.312 35.6719 578.203 34.4219 578.016 33.1094C577.859 31.7656 577.578 30.5 577.172 29.3125C576.797 28.0938 576.266 27.1094 575.578 26.3594C574.891 25.5781 574 25.1875 572.906 25.1875C571.844 25.1875 570.969 25.5781 570.281 26.3594C569.625 27.1406 569.109 28.1406 568.734 29.3594C568.359 30.5781 568.094 31.8594 567.938 33.2031C567.781 34.5469 567.688 35.8125 567.656 37C567.625 38.1875 567.609 39.1094 567.609 39.7656C567.609 40.4531 567.625 41.3906 567.656 42.5781C567.688 43.7656 567.781 45.0312 567.938 46.375C568.125 47.7188 568.406 49 568.781 50.2188C569.156 51.4375 569.688 52.4375 570.375 53.2188C571.062 53.9688 571.938 54.3438 573 54.3438ZM601.453 58.1406C600.672 58.1406 600.125 57.9062 599.812 57.4375C599.531 56.9375 599.391 56.3438 599.391 55.6562V49.3281H589.125C587.219 49.3281 586.266 48.4062 586.266 46.5625C586.266 45.875 586.438 45.2188 586.781 44.5938L598.125 23.3125C598.406 22.7812 598.766 22.3281 599.203 21.9531C599.672 21.5469 600.219 21.3438 600.844 21.3438C601.844 21.3438 602.531 21.6562 602.906 22.2812C603.312 22.875 603.516 23.625 603.516 24.5312V45.5781C604.047 45.5781 604.641 45.5781 605.297 45.5781C605.984 45.5469 606.562 45.6562 607.031 45.9062C607.531 46.1562 607.781 46.6719 607.781 47.4531C607.781 48.2344 607.531 48.75 607.031 49C606.562 49.25 605.984 49.375 605.297 49.375C604.641 49.3438 604.047 49.3281 603.516 49.3281V55.6562C603.516 56.3438 603.359 56.9375 603.047 57.4375C602.766 57.9062 602.234 58.1406 601.453 58.1406ZM590.438 45.5781H599.391V28.6094L590.438 45.5781ZM621 49.0469C620.312 49.0469 619.828 48.8281 619.547 48.3906C619.297 47.9531 619.156 47.4375 619.125 46.8438L618.234 25C618.203 23.9688 618.359 23.1094 618.703 22.4219C619.078 21.7344 619.844 21.3906 621 21.3906C622 21.3906 622.703 21.6875 623.109 22.2812C623.516 22.8438 623.719 23.5938 623.719 24.5312V25L622.828 46.8438C622.797 47.4375 622.656 47.9531 622.406 48.3906C622.156 48.8281 621.688 49.0469 621 49.0469ZM621 58.1406C618.875 58.1406 617.812 57.0625 617.812 54.9062C617.812 54 618.125 53.25 618.75 52.6562C619.406 52.0625 620.172 51.7656 621.047 51.7656C621.891 51.7656 622.625 52.0938 623.25 52.75C623.875 53.375 624.188 54.1094 624.188 54.9531C624.188 57.0781 623.125 58.1406 621 58.1406ZM397.125 106.141C396.312 106.141 395.734 105.891 395.391 105.391C395.078 104.859 394.922 104.219 394.922 103.469V73.75C394.922 72.7188 395.281 71.8438 396 71.125C396.719 70.4062 397.594 70.0469 398.625 70.0469H403.922C404.984 70.0469 406.203 70.125 407.578 70.2812C408.984 70.4062 410.156 70.7344 411.094 71.2656C412.688 72.1719 413.828 73.3594 414.516 74.8281C415.234 76.2969 415.594 77.9375 415.594 79.75C415.594 83.125 414.703 85.6875 412.922 87.4375C411.141 89.1875 408.562 90.0781 405.188 90.1094H399.328V103.469C399.328 104.219 399.156 104.859 398.812 105.391C398.5 105.891 397.938 106.141 397.125 106.141ZM399.328 86.125H403.688C406.031 86.125 407.844 85.7031 409.125 84.8594C410.406 83.9844 411.047 82.2656 411.047 79.7031C411.047 77.4844 410.438 75.9844 409.219 75.2031C408.031 74.4219 406.406 74.0312 404.344 74.0312H401.203C399.953 74.0312 399.328 74.6562 399.328 75.9062V86.125ZM426.562 106.141C424.375 106.141 422.516 105.547 420.984 104.359C419.484 103.172 418.734 101.422 418.734 99.1094C418.734 97.3906 419.078 95.9844 419.766 94.8906C420.453 93.7656 421.375 92.8906 422.531 92.2656C423.688 91.6406 424.953 91.1875 426.328 90.9062C427.734 90.5938 429.156 90.4062 430.594 90.3438C432.062 90.25 433.422 90.1875 434.672 90.1562C434.672 88.8438 434.562 87.75 434.344 86.875C434.125 86 433.656 85.3438 432.938 84.9062C432.219 84.4375 431.109 84.2031 429.609 84.2031C428.359 84.2031 427.406 84.4219 426.75 84.8594C426.094 85.2969 425.562 85.8125 425.156 86.4062C424.781 86.9688 424.375 87.4688 423.938 87.9062C423.531 88.3438 422.938 88.5625 422.156 88.5625C421.531 88.5625 421 88.4219 420.562 88.1406C420.156 87.8281 419.953 87.3281 419.953 86.6406C419.953 86.1094 420.078 85.6094 420.328 85.1406C420.578 84.6406 420.859 84.1875 421.172 83.7812C422.172 82.5 423.391 81.625 424.828 81.1562C426.266 80.6562 427.766 80.4062 429.328 80.4062C431.172 80.4062 432.797 80.6875 434.203 81.25C435.641 81.7812 436.766 82.6562 437.578 83.875C438.422 85.0625 438.844 86.6562 438.844 88.6562V104.031C438.844 105.438 438.141 106.141 436.734 106.141C435.922 106.141 435.375 105.938 435.094 105.531C434.812 105.125 434.672 104.625 434.672 104.031C434.672 103.438 434.672 102.844 434.672 102.25C433.609 103.406 432.391 104.344 431.016 105.062C429.672 105.781 428.188 106.141 426.562 106.141ZM426.844 102.531C427.844 102.531 428.797 102.359 429.703 102.016C430.641 101.641 431.484 101.141 432.234 100.516C432.672 100.141 433.188 99.625 433.781 98.9688C434.375 98.2812 434.672 97.6094 434.672 96.9531V93.3438C433.891 93.375 433 93.4219 432 93.4844C431 93.5156 429.969 93.625 428.906 93.8125C427.875 93.9688 426.906 94.25 426 94.6562C425.094 95.0312 424.359 95.5781 423.797 96.2969C423.266 96.9844 423 97.875 423 98.9688C423 100.219 423.328 101.125 423.984 101.688C424.672 102.25 425.625 102.531 426.844 102.531ZM452.578 111.766C451.609 111.766 450.547 111.703 449.391 111.578C448.234 111.484 447.125 111.25 446.062 110.875C445 110.5 444.125 109.922 443.438 109.141C442.781 108.391 442.453 107.375 442.453 106.094C442.453 105.062 442.703 104.203 443.203 103.516C443.703 102.797 444.344 102.219 445.125 101.781C445.906 101.312 446.734 100.938 447.609 100.656C447.016 100.406 446.344 100.062 445.594 99.625C444.875 99.1562 444.516 98.5312 444.516 97.75C444.516 96.9375 444.875 96.2656 445.594 95.7344C446.312 95.2031 446.984 94.7812 447.609 94.4688C446.453 93.7812 445.547 92.9375 444.891 91.9375C444.234 90.9062 443.906 89.7031 443.906 88.3281C443.906 86.6719 444.312 85.2656 445.125 84.1094C445.938 82.9219 447.016 82.0156 448.359 81.3906C449.703 80.7344 451.141 80.4062 452.672 80.4062C453.766 80.4062 454.812 80.5781 455.812 80.9219C456.844 81.2344 457.75 81.7656 458.531 82.5156C459.031 81.9844 459.609 81.5 460.266 81.0625C460.953 80.625 461.672 80.4062 462.422 80.4062C463.047 80.4062 463.469 80.5938 463.688 80.9688C463.938 81.3438 464.062 81.7969 464.062 82.3281C464.062 82.9844 463.844 83.4688 463.406 83.7812C463 84.0625 462.516 84.2812 461.953 84.4375C461.391 84.5938 460.875 84.7969 460.406 85.0469C461.031 86.2344 461.344 87.4844 461.344 88.7969C461.344 90.2969 460.922 91.5781 460.078 92.6406C459.266 93.7031 458.203 94.5156 456.891 95.0781C455.609 95.6094 454.281 95.875 452.906 95.875C452.469 95.875 452.031 95.8594 451.594 95.8281C451.156 95.7656 450.719 95.6719 450.281 95.5469C450 95.6719 449.656 95.8438 449.25 96.0625C448.875 96.2812 448.688 96.5781 448.688 96.9531C448.688 97.4219 449.031 97.7812 449.719 98.0312C450.406 98.25 451.297 98.4531 452.391 98.6406C453.484 98.8281 454.641 99.0625 455.859 99.3438C457.078 99.5938 458.234 99.9688 459.328 100.469C460.422 100.938 461.312 101.609 462 102.484C462.688 103.328 463.031 104.438 463.031 105.812C463.031 107.156 462.672 108.219 461.953 109C461.266 109.812 460.375 110.406 459.281 110.781C458.219 111.188 457.078 111.453 455.859 111.578C454.672 111.703 453.578 111.766 452.578 111.766ZM452.672 92.6875C454.141 92.6875 455.281 92.3438 456.094 91.6562C456.938 90.9688 457.359 89.8594 457.359 88.3281C457.359 85.2656 455.797 83.7344 452.672 83.7344C451.359 83.7344 450.234 84.1719 449.297 85.0469C448.359 85.9219 447.891 87.0312 447.891 88.375C447.891 89.7188 448.359 90.7812 449.297 91.5625C450.266 92.3125 451.391 92.6875 452.672 92.6875ZM452.297 108.391C452.766 108.391 453.375 108.359 454.125 108.297C454.875 108.266 455.609 108.156 456.328 107.969C457.078 107.812 457.703 107.531 458.203 107.125C458.734 106.75 459 106.219 459 105.531C459 104.938 458.719 104.406 458.156 103.938C457.625 103.469 456.953 103.062 456.141 102.719C455.359 102.375 454.578 102.125 453.797 101.969C453.016 101.781 452.391 101.688 451.922 101.688C451.297 101.688 450.547 101.844 449.672 102.156C448.828 102.438 448.078 102.844 447.422 103.375C446.797 103.906 446.484 104.562 446.484 105.344C446.484 106.281 446.828 106.953 447.516 107.359C448.203 107.797 449 108.078 449.906 108.203C450.844 108.328 451.641 108.391 452.297 108.391ZM477.516 106.188C475.016 106.188 472.984 105.578 471.422 104.359C469.859 103.141 468.719 101.547 468 99.5781C467.281 97.6094 466.922 95.5156 466.922 93.2969C466.922 91.6719 467.094 90.0938 467.438 88.5625C467.812 87.0312 468.391 85.6562 469.172 84.4375C469.984 83.1875 471.031 82.2031 472.312 81.4844C473.625 80.7656 475.203 80.4062 477.047 80.4062C479.266 80.4062 481.109 80.875 482.578 81.8125C484.078 82.75 485.203 84.0469 485.953 85.7031C486.703 87.3281 487.078 89.2031 487.078 91.3281C487.078 93.2969 486.062 94.2812 484.031 94.2812H471.281C471.281 95.6875 471.438 97.0312 471.75 98.3125C472.062 99.5625 472.656 100.594 473.531 101.406C474.438 102.188 475.719 102.578 477.375 102.578C478.625 102.578 479.578 102.391 480.234 102.016C480.922 101.609 481.422 101.125 481.734 100.562C482.078 100 482.359 99.4375 482.578 98.875C482.828 98.3125 483.109 97.8438 483.422 97.4688C483.766 97.0625 484.281 96.8594 484.969 96.8594C485.594 96.8594 486.094 97.0156 486.469 97.3281C486.844 97.6406 487.031 98.125 487.031 98.7812C487.031 99.75 486.766 100.656 486.234 101.5C485.734 102.312 485.141 103.047 484.453 103.703C483.516 104.578 482.438 105.219 481.219 105.625C480.031 106 478.797 106.188 477.516 106.188ZM471.422 90.5781H482.062C482.438 90.5781 482.625 90.4062 482.625 90.0625C482.625 88.375 482.141 86.9531 481.172 85.7969C480.203 84.6094 478.844 84.0156 477.094 84.0156C475.781 84.0156 474.719 84.3281 473.906 84.9531C473.125 85.5469 472.547 86.3438 472.172 87.3438C471.797 88.3438 471.547 89.4219 471.422 90.5781ZM517.266 106.141C516.484 106.141 515.938 105.891 515.625 105.391C515.312 104.891 515.156 104.281 515.156 103.562V82.7969C515.156 82.0781 515.312 81.5 515.625 81.0625C515.938 80.625 516.484 80.4062 517.266 80.4062C518.172 80.4062 518.766 80.6562 519.047 81.1562C519.328 81.6562 519.453 82.2656 519.422 82.9844C519.422 83.6719 519.422 84.3281 519.422 84.9531C520.422 83.6094 521.578 82.5156 522.891 81.6719C524.234 80.8281 525.766 80.4062 527.484 80.4062C530.141 80.4062 532.031 81.2031 533.156 82.7969C534.281 84.3594 534.844 86.375 534.844 88.8438V103.562C534.844 104.312 534.688 104.938 534.375 105.438C534.062 105.906 533.5 106.141 532.688 106.141C531.906 106.141 531.359 105.891 531.047 105.391C530.734 104.891 530.578 104.281 530.578 103.562V89.5938C530.578 88.6562 530.469 87.7812 530.25 86.9688C530.031 86.1562 529.641 85.5 529.078 85C528.516 84.4688 527.688 84.2031 526.594 84.2031C524.594 84.2031 522.906 84.9688 521.531 86.5C521 87.0938 520.516 87.7656 520.078 88.5156C519.641 89.2344 519.422 90.0156 519.422 90.8594V103.562C519.422 104.312 519.266 104.938 518.953 105.438C518.641 105.906 518.078 106.141 517.266 106.141ZM549 106.141C546.344 106.141 544.266 105.562 542.766 104.406C541.297 103.219 540.25 101.656 539.625 99.7188C539.031 97.7812 538.734 95.6406 538.734 93.2969C538.734 90.8906 539.047 88.7188 539.672 86.7812C540.297 84.8438 541.375 83.2969 542.906 82.1406C544.438 80.9844 546.531 80.4062 549.188 80.4062C551.062 80.4062 552.641 80.7656 553.922 81.4844C555.203 82.2031 556.234 83.1875 557.016 84.4375C557.828 85.6562 558.406 87.0312 558.75 88.5625C559.094 90.0938 559.266 91.6875 559.266 93.3438C559.266 95.6875 558.953 97.8281 558.328 99.7656C557.734 101.703 556.688 103.25 555.188 104.406C553.719 105.562 551.656 106.141 549 106.141ZM549 102.297C550.25 102.297 551.25 102.031 552 101.5C552.781 100.938 553.375 100.219 553.781 99.3438C554.188 98.4688 554.469 97.5156 554.625 96.4844C554.781 95.4219 554.859 94.3906 554.859 93.3906C554.859 92.3906 554.781 91.3594 554.625 90.2969C554.5 89.2031 554.219 88.2031 553.781 87.2969C553.375 86.3906 552.781 85.6562 552 85.0938C551.25 84.5312 550.234 84.25 548.953 84.25C547.672 84.25 546.641 84.5625 545.859 85.1875C545.078 85.8125 544.484 86.625 544.078 87.625C543.703 88.625 543.438 89.6875 543.281 90.8125C543.156 91.9375 543.094 93 543.094 94C543.094 95.3438 543.25 96.6562 543.562 97.9375C543.875 99.1875 544.453 100.234 545.297 101.078C546.141 101.891 547.375 102.297 549 102.297ZM575.906 105.484C574.281 105.484 573.047 105.281 572.203 104.875C571.391 104.469 570.844 103.812 570.562 102.906C570.281 102 570.141 100.781 570.141 99.25V84.8594H566.719C566.094 84.8594 565.547 84.7344 565.078 84.4844C564.609 84.2031 564.375 83.7031 564.375 82.9844C564.375 82.2656 564.609 81.7812 565.078 81.5312C565.547 81.25 566.094 81.1094 566.719 81.1094H570.141V74.7812C570.141 74.0312 570.297 73.4219 570.609 72.9531C570.922 72.4531 571.484 72.2031 572.297 72.2031C573.109 72.2031 573.656 72.4531 573.938 72.9531C574.25 73.4531 574.406 74.0625 574.406 74.7812V81.1094H578.484C579.109 81.1094 579.656 81.25 580.125 81.5312C580.594 81.7812 580.828 82.2656 580.828 82.9844C580.828 83.7031 580.594 84.2031 580.125 84.4844C579.656 84.7344 579.109 84.8594 578.484 84.8594H574.406V98.6406C574.406 99.6094 574.5 100.312 574.688 100.75C574.906 101.188 575.266 101.453 575.766 101.547C576.266 101.641 576.938 101.688 577.781 101.688C578.5 101.688 579.141 101.781 579.703 101.969C580.266 102.125 580.547 102.656 580.547 103.562C580.547 104.25 580.344 104.75 579.938 105.062C579.562 105.344 579.062 105.484 578.438 105.484H575.906ZM620.766 106.141C619.984 106.141 619.438 105.891 619.125 105.391C618.812 104.891 618.656 104.281 618.656 103.562V84.9062H614.859C614.203 84.9062 613.641 84.7656 613.172 84.4844C612.734 84.2031 612.516 83.7031 612.516 82.9844C612.516 82.2656 612.75 81.7812 613.219 81.5312C613.688 81.25 614.234 81.1094 614.859 81.1094H618.656V75.2031C618.656 73.4531 619.156 72.1562 620.156 71.3125C621.156 70.4688 622.5 70.0469 624.188 70.0469H627.188C627.844 70.0469 628.359 70.2031 628.734 70.5156C629.141 70.7969 629.344 71.2812 629.344 71.9688C629.344 72.75 629.125 73.2656 628.688 73.5156C628.25 73.7344 627.719 73.8438 627.094 73.8438C626.469 73.8438 625.828 73.8594 625.172 73.8906C624.547 73.9219 624.016 74.1094 623.578 74.4531C623.141 74.7656 622.922 75.3906 622.922 76.3281V81.1094H627.234C627.859 81.1094 628.406 81.25 628.875 81.5312C629.344 81.7812 629.578 82.2656 629.578 82.9844C629.578 83.7031 629.344 84.2031 628.875 84.4844C628.438 84.7656 627.891 84.9062 627.234 84.9062H622.922V103.562C622.922 104.312 622.766 104.938 622.453 105.438C622.141 105.906 621.578 106.141 620.766 106.141ZM645 106.141C642.344 106.141 640.266 105.562 638.766 104.406C637.297 103.219 636.25 101.656 635.625 99.7188C635.031 97.7812 634.734 95.6406 634.734 93.2969C634.734 90.8906 635.047 88.7188 635.672 86.7812C636.297 84.8438 637.375 83.2969 638.906 82.1406C640.438 80.9844 642.531 80.4062 645.188 80.4062C647.062 80.4062 648.641 80.7656 649.922 81.4844C651.203 82.2031 652.234 83.1875 653.016 84.4375C653.828 85.6562 654.406 87.0312 654.75 88.5625C655.094 90.0938 655.266 91.6875 655.266 93.3438C655.266 95.6875 654.953 97.8281 654.328 99.7656C653.734 101.703 652.688 103.25 651.188 104.406C649.719 105.562 647.656 106.141 645 106.141ZM645 102.297C646.25 102.297 647.25 102.031 648 101.5C648.781 100.938 649.375 100.219 649.781 99.3438C650.188 98.4688 650.469 97.5156 650.625 96.4844C650.781 95.4219 650.859 94.3906 650.859 93.3906C650.859 92.3906 650.781 91.3594 650.625 90.2969C650.5 89.2031 650.219 88.2031 649.781 87.2969C649.375 86.3906 648.781 85.6562 648 85.0938C647.25 84.5312 646.234 84.25 644.953 84.25C643.672 84.25 642.641 84.5625 641.859 85.1875C641.078 85.8125 640.484 86.625 640.078 87.625C639.703 88.625 639.438 89.6875 639.281 90.8125C639.156 91.9375 639.094 93 639.094 94C639.094 95.3438 639.25 96.6562 639.562 97.9375C639.875 99.1875 640.453 100.234 641.297 101.078C642.141 101.891 643.375 102.297 645 102.297ZM666.516 106.141C663.859 106.141 661.969 105.359 660.844 103.797C659.719 102.203 659.156 100.172 659.156 97.7031V82.9844C659.156 82.2344 659.312 81.625 659.625 81.1562C659.938 80.6562 660.5 80.4062 661.312 80.4062C662.125 80.4062 662.672 80.6562 662.953 81.1562C663.266 81.6562 663.422 82.2656 663.422 82.9844V97C663.422 97.9062 663.531 98.7812 663.75 99.625C663.969 100.438 664.359 101.094 664.922 101.594C665.516 102.094 666.344 102.344 667.406 102.344C669.438 102.344 671.141 101.578 672.516 100.047C673.047 99.4531 673.516 98.7812 673.922 98.0312C674.359 97.2812 674.578 96.5 674.578 95.6875V82.9844C674.578 82.2344 674.734 81.625 675.047 81.1562C675.359 80.6562 675.922 80.4062 676.734 80.4062C677.547 80.4062 678.094 80.6562 678.375 81.1562C678.688 81.6562 678.844 82.2656 678.844 82.9844V103.797C678.844 104.516 678.672 105.094 678.328 105.531C677.984 105.938 677.438 106.141 676.688 106.141C675.812 106.141 675.234 105.891 674.953 105.391C674.672 104.891 674.531 104.281 674.531 103.562C674.562 102.844 674.578 102.188 674.578 101.594C673.578 102.938 672.406 104.031 671.062 104.875C669.75 105.719 668.234 106.141 666.516 106.141ZM685.266 106.141C684.484 106.141 683.938 105.891 683.625 105.391C683.312 104.891 683.156 104.281 683.156 103.562V82.7969C683.156 82.0781 683.312 81.5 683.625 81.0625C683.938 80.625 684.484 80.4062 685.266 80.4062C686.172 80.4062 686.766 80.6562 687.047 81.1562C687.328 81.6562 687.453 82.2656 687.422 82.9844C687.422 83.6719 687.422 84.3281 687.422 84.9531C688.422 83.6094 689.578 82.5156 690.891 81.6719C692.234 80.8281 693.766 80.4062 695.484 80.4062C698.141 80.4062 700.031 81.2031 701.156 82.7969C702.281 84.3594 702.844 86.375 702.844 88.8438V103.562C702.844 104.312 702.688 104.938 702.375 105.438C702.062 105.906 701.5 106.141 700.688 106.141C699.906 106.141 699.359 105.891 699.047 105.391C698.734 104.891 698.578 104.281 698.578 103.562V89.5938C698.578 88.6562 698.469 87.7812 698.25 86.9688C698.031 86.1562 697.641 85.5 697.078 85C696.516 84.4688 695.688 84.2031 694.594 84.2031C692.594 84.2031 690.906 84.9688 689.531 86.5C689 87.0938 688.516 87.7656 688.078 88.5156C687.641 89.2344 687.422 90.0156 687.422 90.8594V103.562C687.422 104.312 687.266 104.938 686.953 105.438C686.641 105.906 686.078 106.141 685.266 106.141ZM715.781 106.141C714 106.141 712.516 105.75 711.328 104.969C710.172 104.156 709.25 103.094 708.562 101.781C707.875 100.469 707.391 99.0469 707.109 97.5156C706.828 95.9844 706.688 94.4844 706.688 93.0156C706.688 91.5781 706.844 90.125 707.156 88.6562C707.469 87.1875 707.984 85.8281 708.703 84.5781C709.422 83.3281 710.359 82.3281 711.516 81.5781C712.703 80.7969 714.141 80.4062 715.828 80.4062C717.297 80.4062 718.578 80.7656 719.672 81.4844C720.797 82.1719 721.75 83.1094 722.531 84.2969V71.9688C722.531 71.2188 722.688 70.6094 723 70.1406C723.312 69.6406 723.875 69.3906 724.688 69.3906C725.5 69.3906 726.047 69.6406 726.328 70.1406C726.641 70.6406 726.797 71.25 726.797 71.9688V103.984C726.797 105.422 726.078 106.141 724.641 106.141C723.828 106.141 723.266 105.953 722.953 105.578C722.672 105.203 722.531 104.734 722.531 104.172C722.531 103.578 722.531 102.984 722.531 102.391C721.75 103.578 720.797 104.5 719.672 105.156C718.547 105.812 717.25 106.141 715.781 106.141ZM716.391 102.344C717.516 102.344 718.531 102.062 719.438 101.5C720.375 100.938 721.125 100.188 721.688 99.25C722.25 98.2812 722.531 97.25 722.531 96.1562V90.6719C722.531 89.5781 722.25 88.5469 721.688 87.5781C721.156 86.5781 720.438 85.7656 719.531 85.1406C718.625 84.5156 717.609 84.2031 716.484 84.2031C715.297 84.2031 714.344 84.5 713.625 85.0938C712.906 85.6562 712.359 86.3906 711.984 87.2969C711.641 88.2031 711.406 89.1719 711.281 90.2031C711.156 91.2344 711.094 92.2031 711.094 93.1094C711.094 93.9844 711.141 94.9531 711.234 96.0156C711.359 97.0781 711.594 98.0938 711.938 99.0625C712.312 100.031 712.844 100.828 713.531 101.453C714.25 102.047 715.203 102.344 716.391 102.344ZM765 86.9688C764.094 86.9688 763.312 86.6406 762.656 85.9844C762.031 85.3281 761.719 84.5469 761.719 83.6406C761.719 82.7344 762.047 81.9688 762.703 81.3438C763.391 80.7188 764.172 80.4062 765.047 80.4062C765.953 80.4062 766.719 80.7344 767.344 81.3906C767.969 82.0156 768.281 82.7812 768.281 83.6875C768.281 84.5938 767.953 85.375 767.297 86.0312C766.672 86.6562 765.906 86.9688 765 86.9688ZM765 106.141C764.094 106.141 763.312 105.812 762.656 105.156C762.031 104.5 761.719 103.719 761.719 102.812C761.719 101.906 762.047 101.141 762.703 100.516C763.391 99.8906 764.172 99.5781 765.047 99.5781C765.953 99.5781 766.719 99.9062 767.344 100.562C767.969 101.188 768.281 101.953 768.281 102.859C768.281 103.766 767.953 104.547 767.297 105.203C766.672 105.828 765.906 106.141 765 106.141ZM797.438 109.844C796.844 109.844 796.188 109.578 795.469 109.047C794.781 108.516 794.094 107.859 793.406 107.078C792.719 106.328 792.094 105.578 791.531 104.828C791 104.078 790.578 103.484 790.266 103.047C788.672 100.734 787.484 98.2969 786.703 95.7344C785.953 93.1719 785.578 90.5 785.578 87.7188C785.578 81.7188 787.391 76.2656 791.016 71.3594C791.297 70.9844 791.672 70.4844 792.141 69.8594C792.641 69.2344 793.188 68.6094 793.781 67.9844C794.406 67.3281 795.031 66.7812 795.656 66.3438C796.281 65.9062 796.859 65.6875 797.391 65.6875C798.516 65.6875 799.078 66.2344 799.078 67.3281C799.078 67.7344 798.891 68.1094 798.516 68.4531C798.141 68.7969 797.828 69.0938 797.578 69.3438C794.797 71.75 792.656 74.5156 791.156 77.6406C789.688 80.7344 788.953 84.1406 788.953 87.8594C788.953 90.5469 789.281 92.9688 789.938 95.125C790.625 97.25 791.641 99.2344 792.984 101.078C794.328 102.922 795.969 104.719 797.906 106.469C798.156 106.688 798.406 106.938 798.656 107.219C798.938 107.5 799.078 107.812 799.078 108.156C799.078 109.281 798.531 109.844 797.438 109.844Z" fill="black"/>
<defs>
<clipPath id="clip0_267_2">
<rect width="801" height="500" fill="white"/>
</clipPath>
</defs>
</svg>
