<svg xmlns="http://www.w3.org/2000/svg" viewBox="0 0 512 512"><title>Polo Shirt</title><g id="Polo_shirt"><path d="M348.67,209.0581a5.5,5.5,0,0,0-5.5,5.5V401.9614H168.9258V214.5581a5.5,5.5,0,0,0-11,0V407.4614a5.5,5.5,0,0,0,5.5,5.5H348.67a5.5,5.5,0,0,0,5.5-5.5V214.5581A5.5,5.5,0,0,0,348.67,209.0581Z"/><path d="M447.1758,217.2305l-75.06-75.0835a90.9651,90.9651,0,0,0-48.4242-25.3395l-17.6949-16.3129a5.4994,5.4994,0,0,0-7.482.0244L256,140.2212,213.4854,100.519a5.5009,5.5009,0,0,0-7.482-.0244l-17.6949,16.3129a90.9651,90.9651,0,0,0-48.4242,25.3395l-75.06,75.0835a5.5,5.5,0,0,0,.0005,7.7778l56.5747,56.5747a5.5,5.5,0,0,0,7.7783,0l22.3247-22.3252a5.5,5.5,0,0,0-7.7783-7.7783l-18.4355,18.436L76.4912,221.1187l71.1724-71.1944a80.0119,80.0119,0,0,1,40.873-21.9729l39.2075,51.4656a5.5,5.5,0,0,0,8.5806.2114L256,156.2813l6.415,7.6123v67.9482h-12.83V191.4766h-11v45.8652a5.5,5.5,0,0,0,5.5,5.5h23.83a5.5,5.5,0,0,0,5.5-5.5V176.9463l2.26,2.6821a5.4991,5.4991,0,0,0,4.2051,1.9556c.0454,0,.0908-.0005.1357-.0015a5.5018,5.5018,0,0,0,4.24-2.1655l39.2075-51.4656a80.0119,80.0119,0,0,1,40.873,21.9729l71.1724,71.1944-48.7974,48.7968L368.2759,251.48a5.5,5.5,0,0,0-7.7783,7.7783l22.3247,22.3252a5.5,5.5,0,0,0,7.7783,0l56.5747-56.5747A5.5,5.5,0,0,0,447.1758,217.2305Zm-214.84-49.938-34.0615-44.711,11.4336-10.54,38.7188,36.1577Zm47.3292,0-16.0909-19.0933,38.7188-36.1577,11.4336,10.54Z"/></g></svg>