<svg xmlns="http://www.w3.org/2000/svg" viewBox="0 0 32 32"><defs><style>.cls-1{fill:#231f20;}</style></defs><g id="t-shirt"><path class="cls-1" d="M29.47,10.71a32.31,32.31,0,0,0-4.94-4.63A30.72,30.72,0,0,0,22,4.35a2.34,2.34,0,0,0-2.79.28A5.09,5.09,0,0,1,16,5.88,4.8,4.8,0,0,1,12.79,4.6,2.29,2.29,0,0,0,10,4.34c-.88.54-1.74,1.12-2.56,1.74a32.31,32.31,0,0,0-4.94,4.63A2.23,2.23,0,0,0,2,12.46,2.28,2.28,0,0,0,3,14L8,17.3l0,.05.06.11s0,0,0,.06l-.92,9a2.23,2.23,0,0,0,.57,1.72,2.28,2.28,0,0,0,1.7.75h13a2.28,2.28,0,0,0,1.7-.75,2.23,2.23,0,0,0,.57-1.72l-.92-9s0,0,0-.06l.06-.11,0-.05L29,14a2.28,2.28,0,0,0,1-1.57A2.23,2.23,0,0,0,29.47,10.71Zm-1.59,1.64L24,14.89V13a1,1,0,0,0-2,0v3.78a2.31,2.31,0,0,0-.13.94l.92,9a.24.24,0,0,1-.06.18.3.3,0,0,1-.22.09h-13a.3.3,0,0,1-.22-.09.24.24,0,0,1-.06-.18l.92-9a2.31,2.31,0,0,0-.13-.94V13a1,1,0,0,0-2,0v1.89L4.12,12.35A.27.27,0,0,1,4,12.18a.19.19,0,0,1,0-.16A29.8,29.8,0,0,1,8.68,7.67c.76-.57,1.57-1.12,2.39-1.62a.34.34,0,0,1,.17,0,.34.34,0,0,1,.21.08A6.74,6.74,0,0,0,16,7.88a7.07,7.07,0,0,0,4.54-1.77.34.34,0,0,1,.4-.06c.82.5,1.62,1,2.38,1.62A29.8,29.8,0,0,1,28,12a.19.19,0,0,1,.05.16A.27.27,0,0,1,27.88,12.35Z"/></g></svg>