<?xml version="1.0" encoding="UTF-8"?>
<!DOCTYPE svg PUBLIC "-//W3C//DTD SVG 1.1//EN" "http://www.w3.org/Graphics/SVG/1.1/DTD/svg11.dtd">
<!-- Creator: CorelDRAW -->
<svg xmlns="http://www.w3.org/2000/svg" xml:space="preserve" width="6.82666in" height="6.82666in" style="shape-rendering:geometricPrecision; text-rendering:geometricPrecision; image-rendering:optimizeQuality; fill-rule:evenodd; clip-rule:evenodd"
viewBox="0 0 6.82666 6.82666"
 xmlns:xlink="http://www.w3.org/1999/xlink">
 <defs>
  <style type="text/css">
   <![CDATA[
    .fil1 {fill:none}
    .fil0 {fill:#212121;fill-rule:nonzero}
   ]]>
  </style>
 </defs>
 <g id="Layer_x0020_1">
  <metadata id="CorelCorpID_0Corel-Layer"/>
  <g id="_555623432">
   <polygon id="_555623168" class="fil0" points="4.44384,4.88825 4.86924,5.14459 4.75924,5.32709 4.33384,5.07075 "/>
   <polygon id="_555623192" class="fil0" points="5.30902,3.45252 5.73442,3.70886 5.62442,3.89137 5.19902,3.63502 "/>
   <path id="_555623336" class="fil0" d="M4.88091 5.31876l-0.557976 0.450079 -0.171248 -0.1025 0.132575 -0.706421 0.0133307 -0.0354173 1.02939 -1.70825c0.0275394,-0.0457087 0.0667795,-0.0805709 0.107791,-0.0999016 0.0548307,-0.0258425 0.114252,-0.0265906 0.165012,0.004l0.292465 0.176244c0.0506929,0.0305472 0.0777756,0.0835157 0.0805472,0.144244 0.00206299,0.0452244 -0.0104055,0.0961181 -0.0379055,0.14176l-1.0294 1.70825 -0.0245866 0.0279173zm-0.466843 0.103185l0.318406 -0.256835 1.01992 -1.69252c0.00184646,-0.00306693 0.00337008,-0.00599606 0.00456693,-0.00874409l-0.241854 -0.145744c-0.00187402,0.00234252 -0.00375984,0.00506299 -0.00561417,0.00814173l-1.01969 1.69214 -0.0757362 0.403555z"/>
   <path id="_555622880" class="fil0" d="M4.19094 4.27307c-0.0448701,-0.115768 -0.15628,-0.231209 -0.293047,-0.335563 -0.300122,-0.229 -0.707705,-0.393055 -0.859606,-0.417217 -0.172291,-0.0273976 -0.174374,-0.343953 -0.174382,-0.344858l-0.000543307 -0.0452874 0.031378 -0.0313819c0.000629921,-0.000629921 0.219669,-0.217476 0.267071,-0.506992l0.0146693 -0.0895866 0.0903307 0c0.00133071,0 0.00109055,-0.00355512 0.00598819,-0.00932283 0.0134803,-0.015874 0.0250394,-0.0388543 0.033622,-0.0655591 0.00931102,-0.0289685 0.0145354,-0.061622 0.0145354,-0.0942835 0,-0.046126 -0.0102953,-0.0881181 -0.0347402,-0.108878l-0.0399291 -0.0339094 0.00242913 -0.0519252c0.00073622,-0.0157953 0.00257087,-0.032811 0.0048937,-0.0544291 0.00505512,-0.0470433 0.0127362,-0.118433 0.0127362,-0.202689 0,-0.257917 -0.082437,-0.63378 -0.626886,-0.63378 -0.544449,0 -0.626878,0.37587 -0.626878,0.633787 0,0.0842362 0.00767717,0.15561 0.0127323,0.202654 0.00232283,0.0216378 0.00415748,0.0386575 0.0048937,0.0544567l0.00242913 0.0519291 -0.0399291 0.0339055c-0.0244449,0.0207598 -0.0347362,0.062752 -0.0347362,0.108874 0,0.0326614 0.00522441,0.065315 0.0145354,0.0942835 0.00858268,0.0267047 0.0201496,0.0496929 0.033626,0.065563 0.00489764,0.00576772 0.00466142,0.00932283 0.00599213,0.00932283l0.0903346 0 0.0146654 0.0895866c0.0474016,0.289512 0.266433,0.506362 0.267063,0.506992l0.0313819 0.0313819 -0.000547244 0.0452874c-7.87402e-006,0.000905512 -0.00208268,0.317461 -0.174378,0.344858 -0.151898,0.0241614 -0.559488,0.188217 -0.85961,0.41722 -0.136768,0.104354 -0.248177,0.219795 -0.293047,0.335559l3.10295 0zm-0.163882 -0.504728c0.226752,0.173016 0.398543,0.383122 0.398543,0.611398l0 0.106669 -0.106669 0 -3.35894 0 -0.106669 0 0 -0.106669c0,-0.22828 0.171791,-0.438378 0.398543,-0.611394 0.327508,-0.249898 0.782996,-0.430622 0.955445,-0.458055 0.00394094,-0.000625984 0.00136614,-0.0505197 -0.0012874,-0.0899921 -0.0641142,-0.0719567 -0.223516,-0.270457 -0.285272,-0.527043 -0.0286339,-0.0147205 -0.0544724,-0.0362126 -0.077126,-0.0628898 -0.0314094,-0.0369882 -0.0566457,-0.0852362 -0.073626,-0.138067 -0.016252,-0.0505669 -0.0253701,-0.105791 -0.0253701,-0.159283 0,-0.0823583 0.0208898,-0.164098 0.068937,-0.227343 -0.00572441,-0.0532126 -0.0143268,-0.133642 -0.0143268,-0.224476 0,-0.344732 0.11048,-0.847126 0.840217,-0.847126 0.729736,0 0.840224,0.502386 0.840224,0.847118 0,0.0908346 -0.00861024,0.171268 -0.0143307,0.224488 0.0480472,0.0632402 0.0689409,0.14498 0.0689409,0.227343 0,0.0534921 -0.00911811,0.108717 -0.0253701,0.159283 -0.0169803,0.0528307 -0.0422126,0.101075 -0.073622,0.138063 -0.0226535,0.0266811 -0.0484921,0.0481693 -0.077122,0.0628898 -0.061748,0.256579 -0.221161,0.455094 -0.28528,0.527047 -0.00265354,0.0394724 -0.00522441,0.0893622 -0.00128346,0.0899882 0.172453,0.0274331 0.627941,0.208161 0.955441,0.458051z"/>
  </g>
 </g>
 <rect class="fil1" width="6.82666" height="6.82666"/>
</svg>
