<svg id="Layer_3" data-name="Layer 3" xmlns="http://www.w3.org/2000/svg" viewBox="0 0 128 128"><title>Artboard 102</title><path d="M16.951,89.082l46.272,23.74a1.469,1.469,0,0,0,.146.067,1.368,1.368,0,0,0,.126.058,1.3,1.3,0,0,0,1.009,0,1.373,1.373,0,0,0,.126-.058,1.467,1.467,0,0,0,.146-.067l46.272-23.74a1.439,1.439,0,0,0,.785-1.282h.006v-47.6a1.43,1.43,0,0,0-.076-.442v0a1.434,1.434,0,0,0-.264-.478l0-.006a1.442,1.442,0,0,0-.552-.409L87.852,27.011l-23.2-11.9a1.439,1.439,0,0,0-1.311,0l-23.2,11.9L17.059,38.858a1.446,1.446,0,0,0-.734.681h0a1.429,1.429,0,0,0-.152.544v.01c0,.034-.01.066-.01.1V87.8h.006A1.439,1.439,0,0,0,16.951,89.082Zm2.1-46.527,21.1,10.823,22.406,11.5v44.369l-43.5-22.319Zm46.393,66.687V64.873l14.505-7.442V65.88a1.446,1.446,0,0,0,2.637.82l5.642-6.945,3.816,1.605a1.441,1.441,0,0,0,2-1.327h.006V50.2l14.9-7.643V86.923Zm17.4-53.294,5.009-2.57,3.308-1.7v6.183L88.414,56.71a1.441,1.441,0,0,0-1.74.391l-3.831,4.715ZM64,18.01,86.541,29.575l20.7,10.62L93,47.5,49.756,25.318ZM41.458,29.575,46.6,26.936,89.767,49.082,81.392,53.45,38.158,31.269ZM35,32.887l43.24,22.184L64,62.379,41.458,50.814l-20.7-10.619Z"/></svg>