<svg width="99" height="93" viewBox="0 0 99 93" fill="none" xmlns="http://www.w3.org/2000/svg">
<path d="M85.8319 84.8481H14.9319C12.0319 84.8481 9.33193 83.2481 7.53193 80.3481C6.13193 78.0481 6.13193 74.6481 7.53193 71.7481L11.5319 63.5481C14.3319 57.9481 21.2319 54.4481 26.4319 54.0481C28.1319 53.9481 31.5319 53.2481 34.9319 52.4481C37.4319 51.8481 38.8319 51.4481 39.6319 51.1481C39.4319 50.4481 39.0319 49.6481 38.5319 48.9481C32.5319 44.2481 28.9319 36.3481 28.9319 27.8481C28.9319 13.8481 38.5319 2.5481 50.4319 2.5481C62.3319 2.5481 71.9319 13.9481 71.9319 27.8481C71.9319 36.3481 68.3319 44.2481 62.3319 48.9481C61.8319 49.6481 61.4319 50.3481 61.2319 51.0481C62.0319 51.3481 63.4319 51.7481 65.8319 52.3481C68.8319 53.0481 72.4319 53.6481 74.2319 53.8481C79.5319 54.3481 86.3319 57.6481 89.1319 63.2481L93.0319 71.1481C94.5319 74.1481 94.5319 77.9481 93.0319 80.2481C91.4319 83.1481 88.6319 84.8481 85.8319 84.8481ZM50.4319 6.64809C40.7319 6.64809 32.9319 16.2481 32.9319 27.9481C32.9319 35.3481 36.0319 42.0481 41.1319 46.0481C41.2319 46.1481 41.4319 46.2481 41.5319 46.4481C42.9319 48.2481 43.7319 50.2481 43.7319 52.3481C43.7319 52.9481 43.5319 53.5481 43.0319 53.9481C42.6319 54.2481 41.6319 55.1481 35.8319 56.5481C33.1319 57.1481 29.0319 57.9481 26.7319 58.1481C22.6319 58.5481 17.1319 61.3481 15.1319 65.4481L11.2319 73.6481C10.4319 75.3481 10.3319 77.3481 11.0319 78.4481C11.8319 79.7481 13.3319 81.0481 15.0319 81.0481H85.9319C87.6319 81.0481 89.1319 79.7481 89.9319 78.4481C90.5319 77.4481 90.6319 75.0481 89.7319 73.2481L85.8319 65.3481C83.8319 61.3481 78.3319 58.5481 74.2319 58.1481C72.2319 57.9481 68.4319 57.3481 65.2319 56.5481C59.4319 55.1481 58.4319 54.2481 58.0319 54.0481C57.6319 53.6481 57.3319 53.0481 57.3319 52.4481C57.3319 50.3481 58.1319 48.3481 59.5319 46.5481C59.6319 46.4481 59.7319 46.2481 59.9319 46.1481C65.0319 42.2481 68.1319 35.4481 68.1319 28.1481C67.9319 16.2481 60.1319 6.64809 50.4319 6.64809Z" fill="black"/>
</svg>
